<svg width="16" height="16" viewBox="0 0 16 16" fill="none" xmlns="http://www.w3.org/2000/svg">
<path d="M13.9997 8.13283C13.9997 7.64091 13.9588 7.28193 13.8704 6.90967H8.12207V9.12997H11.4962C11.4282 9.68174 11.0609 10.5127 10.2445 11.0711L10.2331 11.1454L12.0506 12.5213L12.1765 12.5336C13.333 11.4899 13.9997 9.95428 13.9997 8.13283Z" fill="#4285F4"/>
<path d="M8.12277 13.983C9.77582 13.983 11.1636 13.4511 12.1772 12.5338L10.2452 11.0713C9.72822 11.4236 9.03432 11.6695 8.12277 11.6695C6.50372 11.6695 5.12957 10.6259 4.63972 9.18335L4.56792 9.18931L2.67804 10.6186L2.65332 10.6857C3.66012 12.6401 5.72817 13.983 8.12277 13.983Z" fill="#34A853"/>
<path d="M4.63945 9.18324C4.5102 8.81097 4.4354 8.41208 4.4354 7.99994C4.4354 7.58776 4.5102 7.18892 4.63265 6.81665L4.62923 6.73737L2.71566 5.28516L2.65305 5.31426C2.2381 6.12528 2 7.03603 2 7.99994C2 8.96385 2.2381 9.87456 2.65305 10.6856L4.63945 9.18324Z" fill="#FBBC05"/>
<path d="M8.12277 4.33047C9.27242 4.33047 10.0479 4.81574 10.4901 5.22128L12.218 3.57265C11.1568 2.60874 9.77582 2.01709 8.12277 2.01709C5.72817 2.01709 3.66012 3.35991 2.65332 5.31431L4.63292 6.81671C5.12957 5.37416 6.50372 4.33047 8.12277 4.33047Z" fill="#EB4335"/>
</svg>
