<svg width="25" height="25" viewBox="0 0 25 25" fill="none" xmlns="http://www.w3.org/2000/svg">
<mask id="mask0_230_906" style="mask-type:alpha" maskUnits="userSpaceOnUse" x="0" y="0" width="25" height="25">
<rect x="0.5" y="0.5" width="24" height="24" fill="#153339"/>
</mask>
<g mask="url(#mask0_230_906)">
<path d="M12.5 19.5C10.15 17.7667 8.39583 16.0833 7.2375 14.45C6.07917 12.8167 5.5 11.2167 5.5 9.65C5.5 7.56667 6.15 5.85417 7.45 4.5125C8.75 3.17083 10.4333 2.5 12.5 2.5C14.5667 2.5 16.25 3.17083 17.55 4.5125C18.85 5.85417 19.5 7.56667 19.5 9.65C19.5 11.2167 18.9208 12.8167 17.7625 14.45C16.6042 16.0833 14.85 17.7667 12.5 19.5ZM12.5 11.5C13.05 11.5 13.5208 11.3042 13.9125 10.9125C14.3042 10.5208 14.5 10.05 14.5 9.5C14.5 8.95 14.3042 8.47917 13.9125 8.0875C13.5208 7.69583 13.05 7.5 12.5 7.5C11.95 7.5 11.4792 7.69583 11.0875 8.0875C10.6958 8.47917 10.5 8.95 10.5 9.5C10.5 10.05 10.6958 10.5208 11.0875 10.9125C11.4792 11.3042 11.95 11.5 12.5 11.5ZM5.5 22.5V20.5H19.5V22.5H5.5Z" fill="#21474E"/>
</g>
</svg>
