<svg width="16" height="16" viewBox="0 0 16 16" fill="none" xmlns="http://www.w3.org/2000/svg">
<g clip-path="url(#clip0_154_223)">
<path d="M6.70188 11.273L4.48963 13.967C4.17837 14.346 4.32707 14.9184 4.78344 15.098L6.94626 15.9493C7.41285 16.1329 7.92005 15.7972 7.9333 15.2959L8.02655 11.7671C8.04536 11.0557 7.15348 10.7231 6.70188 11.273Z" fill="#E82626"/>
<path d="M6.33411 8.5948L3.05325 7.41686C2.59163 7.25111 2.10253 7.58356 2.08677 8.07379L2.01211 10.3969C1.99599 10.8981 2.48269 11.2629 2.95923 11.1069L6.31406 10.0085C6.99035 9.78707 7.00383 8.83525 6.33411 8.5948Z" fill="#E82626"/>
<path d="M10.0945 8.97288L13.4551 8.04662C13.9279 7.91631 14.1364 7.36287 13.867 6.953L12.5903 5.01076C12.3148 4.59178 11.7068 4.57374 11.4071 4.97572L9.29683 7.80562C8.87142 8.37606 9.40852 9.16198 10.0945 8.97288Z" fill="#E82626"/>
<path d="M7.6605 0.897267C7.68724 0.316025 7.13953 -0.12246 6.57819 0.0308391L3.91813 0.7573C3.34427 0.914015 3.10054 1.59325 3.44383 2.07907L6.49644 7.36769C6.52123 7.41063 6.54856 7.45224 6.58069 7.49003C7.03276 8.02129 7.88145 7.82443 8.09065 7.20253C8.12822 7.09081 8.1388 6.97174 8.12955 6.85421L7.6605 0.897267Z" fill="#E82626"/>
<path d="M13.4783 11.3903L10.1037 10.3541C9.42344 10.1452 8.86379 10.9152 9.27249 11.4978L11.2745 14.3515C11.5562 14.753 12.1475 14.7632 12.4429 14.3717L13.843 12.5164C14.145 12.1161 13.9576 11.5375 13.4783 11.3903Z" fill="#E82626"/>
</g>
<defs>
<clipPath id="clip0_154_223">
<rect width="16" height="16" fill="white"/>
</clipPath>
</defs>
</svg>
